<svg width="288" height="213" viewBox="0 0 288 213" fill="none" xmlns="http://www.w3.org/2000/svg">
<path d="M0 27.7165C0 26.668 0.58082 25.8181 1.2973 25.8181H286.703C287.419 25.8181 288 26.668 288 27.7165V211.101C288 212.15 287.419 213 286.703 213H1.2973C0.580819 213 0 212.15 0 211.101V27.7165Z" fill="#1D3F5A"/>
<path d="M227.302 32.717H173L137.368 1.02875C137 0.629161 136.5 -1.41824e-05 136 -0.00012207H8.5C4.13719 -0.00012207 0 4.08953 0 9.15154V172.344C0 177.406 41.5248 187.609 45.8876 187.609H227.302C231.664 187.609 235.189 183.519 235.189 178.457V41.8687C235.189 36.8067 231.664 32.717 227.302 32.717Z" fill="#1D3F5A"/>
</svg>
