<svg width="144" height="22" viewBox="0 0 144 22" fill="none" xmlns="http://www.w3.org/2000/svg">
<path d="M3.75732 21.693C2.88623 21.693 2.15324 21.3955 1.55835 20.8007C0.963461 20.2058 0.666016 19.4622 0.666016 18.5698C0.666016 17.6562 0.963461 16.9232 1.55835 16.3708C2.15324 15.7972 2.88623 15.5104 3.75732 15.5104C4.62842 15.5104 5.36141 15.7972 5.9563 16.3708C6.55119 16.9232 6.84863 17.6562 6.84863 18.5698C6.84863 19.4622 6.55119 20.2058 5.9563 20.8007C5.36141 21.3955 4.62842 21.693 3.75732 21.693Z" fill="white"/>
<path d="M18.2859 21.693C16.4588 21.693 14.8122 21.3212 13.3462 20.5776C11.9015 19.8127 10.7648 18.761 9.93621 17.4225C9.12886 16.084 8.72518 14.5649 8.72518 12.8652C8.72518 11.1655 9.12886 9.64645 9.93621 8.30794C10.7648 6.96944 11.9015 5.92838 13.3462 5.18477C14.8122 4.41991 16.4588 4.03748 18.2859 4.03748C20.0918 4.03748 21.6641 4.41991 23.0026 5.18477C24.3623 5.92838 25.3503 7.00131 25.9664 8.40355L22.1102 10.475C21.2179 8.90284 19.9325 8.11673 18.2541 8.11673C16.958 8.11673 15.8851 8.54165 15.0353 9.3915C14.1854 10.2413 13.7605 11.3993 13.7605 12.8652C13.7605 14.3312 14.1854 15.4891 15.0353 16.339C15.8851 17.1888 16.958 17.6137 18.2541 17.6137C19.9537 17.6137 21.2391 16.8276 22.1102 15.2554L25.9664 17.3588C25.3503 18.7185 24.3623 19.7808 23.0026 20.5457C21.6641 21.3106 20.0918 21.693 18.2859 21.693Z" fill="white"/>
<path d="M35.7445 4.03748C38.4003 4.03748 40.4399 4.67486 41.8634 5.94963C43.2869 7.20315 43.9986 9.10468 43.9986 11.6542V21.438H39.3457V19.3028C38.4109 20.8963 36.6687 21.693 34.1192 21.693C32.8019 21.693 31.6546 21.4699 30.6773 21.0237C29.7212 20.5776 28.9882 19.9614 28.4783 19.1753C27.9684 18.3892 27.7135 17.4969 27.7135 16.4983C27.7135 14.9049 28.3084 13.6513 29.4981 12.7378C30.7092 11.8242 32.5682 11.3674 35.0753 11.3674H39.027C39.027 10.2838 38.6977 9.45523 38.0391 8.88159C37.3805 8.2867 36.3925 7.98925 35.0753 7.98925C34.1617 7.98925 33.2587 8.13798 32.3664 8.43542C31.4953 8.71162 30.7517 9.09405 30.1355 9.58271L28.3509 6.10897C29.2857 5.45034 30.4011 4.94044 31.6971 4.57925C33.0144 4.21807 34.3635 4.03748 35.7445 4.03748ZM35.3621 18.3467C36.2119 18.3467 36.9662 18.1555 37.6248 17.7731C38.2834 17.3694 38.7508 16.7851 39.027 16.0203V14.2675H35.617C33.5774 14.2675 32.5576 14.9367 32.5576 16.2752C32.5576 16.9126 32.8019 17.4225 33.2906 17.805C33.8005 18.1661 34.491 18.3467 35.3621 18.3467Z" fill="white"/>
<path d="M56.9709 21.693C55.1437 21.693 53.4971 21.3212 52.0311 20.5776C50.5864 19.8127 49.4497 18.761 48.6211 17.4225C47.8138 16.084 47.4101 14.5649 47.4101 12.8652C47.4101 11.1655 47.8138 9.64645 48.6211 8.30794C49.4497 6.96944 50.5864 5.92838 52.0311 5.18477C53.4971 4.41991 55.1437 4.03748 56.9709 4.03748C58.7768 4.03748 60.349 4.41991 61.6875 5.18477C63.0473 5.92838 64.0352 7.00131 64.6513 8.40355L60.7952 10.475C59.9028 8.90284 58.6174 8.11673 56.939 8.11673C55.643 8.11673 54.57 8.54165 53.7202 9.3915C52.8704 10.2413 52.4454 11.3993 52.4454 12.8652C52.4454 14.3312 52.8704 15.4891 53.7202 16.339C54.57 17.1888 55.643 17.6137 56.939 17.6137C58.6387 17.6137 59.9241 16.8276 60.7952 15.2554L64.6513 17.3588C64.0352 18.7185 63.0473 19.7808 61.6875 20.5457C60.349 21.3106 58.7768 21.693 56.9709 21.693Z" fill="white"/>
<path d="M75.4545 21.693C73.6486 21.693 72.0232 21.3212 70.5785 20.5776C69.155 19.8127 68.0396 18.761 67.2322 17.4225C66.4249 16.084 66.0212 14.5649 66.0212 12.8652C66.0212 11.1655 66.4249 9.64645 67.2322 8.30794C68.0396 6.96944 69.155 5.92838 70.5785 5.18477C72.0232 4.41991 73.6486 4.03748 75.4545 4.03748C77.2604 4.03748 78.8751 4.41991 80.2986 5.18477C81.7221 5.92838 82.8375 6.96944 83.6449 8.30794C84.4522 9.64645 84.8559 11.1655 84.8559 12.8652C84.8559 14.5649 84.4522 16.084 83.6449 17.4225C82.8375 18.761 81.7221 19.8127 80.2986 20.5776C78.8751 21.3212 77.2604 21.693 75.4545 21.693ZM75.4545 17.6137C76.7292 17.6137 77.7703 17.1888 78.5777 16.339C79.4063 15.4679 79.8206 14.31 79.8206 12.8652C79.8206 11.4205 79.4063 10.2732 78.5777 9.42337C77.7703 8.55228 76.7292 8.11673 75.4545 8.11673C74.1797 8.11673 73.128 8.55228 72.2994 9.42337C71.4708 10.2732 71.0565 11.4205 71.0565 12.8652C71.0565 14.31 71.4708 15.4679 72.2994 16.339C73.128 17.1888 74.1797 17.6137 75.4545 17.6137Z" fill="white"/>
<path d="M98.6002 4.03748C100.725 4.03748 102.435 4.67486 103.731 5.94963C105.048 7.22439 105.707 9.1153 105.707 11.6223V21.438H100.735V12.3872C100.735 11.0274 100.438 10.0183 99.8431 9.35963C99.2482 8.67975 98.3877 8.33981 97.2617 8.33981C96.0082 8.33981 95.0096 8.73287 94.266 9.51897C93.5224 10.2838 93.1506 11.4311 93.1506 12.9608V21.438H88.179V4.29243H92.9275V6.30019C93.5861 5.57782 94.4041 5.02542 95.3814 4.64299C96.3587 4.23932 97.4317 4.03748 98.6002 4.03748Z" fill="white"/>
<path d="M127.487 4.29243V21.438H122.77V19.3984C122.111 20.142 121.325 20.7157 120.412 21.1193C119.498 21.5018 118.51 21.693 117.448 21.693C115.196 21.693 113.411 21.045 112.094 19.749C110.777 18.453 110.118 16.5302 110.118 13.9807V4.29243H115.09V13.2477C115.09 16.0097 116.247 17.3907 118.563 17.3907C119.753 17.3907 120.709 17.0082 121.431 16.2434C122.154 15.4573 122.515 14.2993 122.515 12.7696V4.29243H127.487Z" fill="white"/>
<path d="M143.151 20.6094C142.662 20.9706 142.057 21.2468 141.335 21.438C140.633 21.608 139.89 21.693 139.104 21.693C137.064 21.693 135.481 21.1725 134.355 20.1314C133.25 19.0903 132.698 17.5606 132.698 15.5422V8.49916H130.053V4.67486H132.698V0.5H137.67V4.67486H141.94V8.49916H137.67V15.4785C137.67 16.2009 137.85 16.7639 138.211 17.1676C138.594 17.55 139.125 17.7412 139.805 17.7412C140.591 17.7412 141.26 17.5288 141.813 17.1038L143.151 20.6094Z" fill="white"/>
</svg>
