<svg width="21" height="20" viewBox="0 0 21 20" fill="none" xmlns="http://www.w3.org/2000/svg">
<path d="M9.61482 0.743857C9.91467 -0.176419 11.2166 -0.176419 11.5164 0.743858L13.2675 6.11826C13.4016 6.52988 13.7854 6.80846 14.2183 6.80846H19.8791C20.8485 6.80846 21.2508 8.04949 20.4658 8.61825L15.8909 11.9329C15.5395 12.1875 15.3924 12.6398 15.5268 13.0525L17.2754 18.4191C17.5754 19.34 16.5222 20.1069 15.7379 19.5387L11.1523 16.2163C10.8023 15.9627 10.3289 15.9627 9.97891 16.2163L5.39336 19.5387C4.6091 20.1069 3.55581 19.34 3.85584 18.4191L5.60441 13.0525C5.73886 12.6398 5.59178 12.1875 5.24032 11.9329L0.66545 8.61825C-0.119556 8.04949 0.282774 6.80846 1.25217 6.80846H6.91292C7.34585 6.80846 7.72961 6.52988 7.86373 6.11825L9.61482 0.743857Z" fill="white" fill-opacity="0.3"/>
</svg>
