<svg width="21" height="20" viewBox="0 0 21 20" fill="none" xmlns="http://www.w3.org/2000/svg">
<path d="M9.51772 0.743857C9.81756 -0.176419 11.1195 -0.176419 11.4193 0.743858L13.1704 6.11826C13.3045 6.52988 13.6883 6.80846 14.1212 6.80846H19.782C20.7514 6.80846 21.1537 8.04949 20.3687 8.61825L15.7938 11.9329C15.4424 12.1875 15.2953 12.6398 15.4297 13.0525L17.1783 18.4191C17.4783 19.34 16.425 20.1069 15.6408 19.5387L11.0552 16.2163C10.7052 15.9627 10.2318 15.9627 9.8818 16.2163L5.29625 19.5387C4.512 20.1069 3.45871 19.34 3.75873 18.4191L5.5073 13.0525C5.64176 12.6398 5.49468 12.1875 5.14322 11.9329L0.568343 8.61825C-0.216663 8.04949 0.185667 6.80846 1.15506 6.80846H6.81582C7.24874 6.80846 7.6325 6.52988 7.76662 6.11825L9.51772 0.743857Z" fill="white"/>
</svg>
