<svg width="1110" height="561" viewBox="0 0 1110 561" fill="none" xmlns="http://www.w3.org/2000/svg">
<path d="M0 73C0 70.2386 2.23858 68 5 68H1105C1107.76 68 1110 70.2386 1110 73V556C1110 558.761 1107.76 561 1105 561H5C2.23857 561 0 558.761 0 556V73Z" fill="#1D3F5A"/>
<path d="M729.6 86.1706H388.55L277.115 1.65712C275.697 0.604682 273.832 0.013204 271.89 0H30.4C13.585 0 0 10.7713 0 24.1037V470.021C0 483.354 13.585 494.125 30.4 494.125H729.6C746.415 494.125 760 483.354 760 470.021V110.274C760 96.9419 746.415 86.1706 729.6 86.1706Z" fill="#1D3F5A"/>
</svg>
