<svg width="68" height="68" viewBox="0 0 68 68" fill="none" xmlns="http://www.w3.org/2000/svg">
<path d="M56.2623 53.674L44.2523 33.5476L56.2623 13.4211L62.1394 33.5476L56.2623 53.674ZM29.7031 51.7198L14.613 36.9002H38.6603L50.6703 57.0266L29.7031 51.7198ZM29.7031 15.0901L50.6703 9.78331L38.6603 29.9097H14.3278C14.3278 30.1949 29.7031 15.0901 29.7031 15.0901ZM60.4557 0L33.0704 6.98837L28.877 13.9767H20.7606L0.634155 33.5455L20.7606 53.1142H28.877L32.7853 60.1025L60.1852 67.0909L67.4462 40.5317L63.5379 33.5434L67.7314 26.555L60.4557 0Z" fill="white"/>
<path d="M57 6.25H58.3011V10.25H57V6.25Z" fill="white"/>
</svg>
